# xmcd
# Track frame offsets:
# 150
# 20753
# 33341
# 47768
# 61004
# 77174
# 90366
# 107544
# 126729
# 140156
# 156337
# 173290
# 185567
# 201545
# 220797
# 238577
# 256045
# 268526
# 282121
#
# Disc length: 3956 seconds
# Revision: 0
# Processed by: cddbd v1.5PL3 Copyright (c) Steve Scherf et al.
# Submitted via: VisiTrax 2.9.9.202 - For more info visit www.synapsa.com
#
DISCID=0c0f7213
DTITLE=Various Artist - Boot Scootin' Country  Disc 2
DYEAR=1900
DGENRE=
TTITLE0=Life's A Dance (Dance Mix)
TTITLE1=Only On Days That End In Y
TTITLE2=I Feel Lucky
TTITLE3=Cadillac Style
TTITLE4=Big Love
TTITLE5=Slide Off Your Satin Sheets
TTITLE6=Baby Likes To Rock It
TTITLE7=Neon Moon
TTITLE8=Big Guitar
TTITLE9=Some Girls Do
TTITLE10=Adalida (Remix)
TTITLE11=Walk Softly On This Heart Of Mine
TTITLE12=Should've Asked Her Faster
TTITLE13=T.L.C. A.S.A.P.
TTITLE14=Hang In There Superman
TTITLE15=What Kind Of Love
TTITLE16=Another You
TTITLE17=Super Love
TTITLE18=Anyway The Wind Blows
EXTD=
EXTT0=
EXTT1=
EXTT2=
EXTT3=
EXTT4=
EXTT5=
EXTT6=
EXTT7=
EXTT8=
EXTT9=
EXTT10=
EXTT11=
EXTT12=
EXTT13=
EXTT14=
EXTT15=
EXTT16=
EXTT17=
EXTT18=
PLAYORDER=
